<?xml version="1.0" encoding="UTF-8"?> <svg xmlns="http://www.w3.org/2000/svg" width="380" height="520" viewBox="0 0 380 520" fill="none"><rect width="380" height="520" fill="url(#paint0_linear_2155_3100)"></rect><rect x="106.874" y="180" width="74.895" height="42.066" rx="8" fill="url(#paint1_linear_2155_3100)"></rect><path opacity="0.25" fill-rule="evenodd" clip-rule="evenodd" d="M250.015 181.079C251.12 181.079 252.015 181.974 252.015 183.079V190.582C252.015 191.687 251.12 192.582 250.015 192.582H200.231C199.127 192.582 198.231 191.687 198.231 190.582V183.079C198.231 181.974 199.127 181.079 200.231 181.079H250.015ZM271.126 210.563C272.231 210.563 273.126 211.458 273.126 212.563V220.066C273.126 221.171 272.231 222.066 271.126 222.066H200.231C199.127 222.066 198.231 221.171 198.231 220.066V212.563C198.231 211.458 199.127 210.563 200.231 210.563H271.126ZM273.126 242.047C273.126 240.942 272.231 240.047 271.126 240.047H108.874C107.769 240.047 106.874 240.942 106.874 242.047V249.55C106.874 250.655 107.769 251.55 108.874 251.55H271.126C272.231 251.55 273.126 250.655 273.126 249.55V242.047ZM271.126 269.53C272.231 269.53 273.126 270.425 273.126 271.53V279.033C273.126 280.138 272.231 281.033 271.126 281.033H108.874C107.769 281.033 106.874 280.138 106.874 279.033V271.53C106.874 270.425 107.769 269.53 108.874 269.53H271.126ZM273.126 301.013C273.126 299.909 272.231 299.013 271.126 299.013H108.874C107.769 299.013 106.874 299.909 106.874 301.013V308.517C106.874 309.621 107.769 310.517 108.874 310.517H271.126C272.231 310.517 273.126 309.621 273.126 308.517V301.013ZM250.015 328.497C251.12 328.497 252.015 329.392 252.015 330.497V338C252.015 339.105 251.12 340 250.015 340H108.874C107.769 340 106.874 339.105 106.874 338V330.497C106.874 329.392 107.769 328.497 108.874 328.497H250.015Z" fill="url(#paint2_linear_2155_3100)"></path><defs><linearGradient id="paint0_linear_2155_3100" x1="0" y1="0" x2="1226.34" y2="201.752" gradientUnits="userSpaceOnUse"><stop stop-color="#000F8F"></stop><stop offset="1" stop-color="#FF7656"></stop></linearGradient><linearGradient id="paint1_linear_2155_3100" x1="106.874" y1="222.066" x2="182.121" y2="221.425" gradientUnits="userSpaceOnUse"><stop stop-color="#FFC36F"></stop><stop offset="1" stop-color="#FF7656"></stop></linearGradient><linearGradient id="paint2_linear_2155_3100" x1="231.878" y1="170.075" x2="231.878" y2="378.269" gradientUnits="userSpaceOnUse"><stop stop-color="white"></stop><stop offset="1" stop-color="white" stop-opacity="0"></stop></linearGradient></defs></svg> 