<?xml version="1.0" encoding="UTF-8"?> <svg xmlns="http://www.w3.org/2000/svg" width="380" height="520" viewBox="0 0 380 520" fill="none"><rect width="380" height="520" fill="url(#paint0_linear_2124_2977)"></rect><path d="M263.755 239.873V280.151C263.772 281.084 263.541 282.005 263.084 282.82C262.627 283.634 261.961 284.314 261.154 284.788C260.347 285.262 259.428 285.514 258.491 285.519C257.553 285.523 256.632 285.279 255.821 284.812L212.874 260.012L255.797 235.328C256.601 234.86 257.514 234.612 258.444 234.609C259.375 234.605 260.29 234.846 261.097 235.307C261.904 235.768 262.575 236.433 263.041 237.234C263.508 238.036 263.754 238.946 263.755 239.873ZM119.07 264.674L162.017 289.357V230.759L119.07 255.35C118.217 255.797 117.503 256.467 117.005 257.289C116.507 258.111 116.244 259.052 116.244 260.012C116.244 260.971 116.507 261.913 117.005 262.735C117.503 263.556 118.217 264.227 119.07 264.674ZM119.07 206.075L162.017 230.759V181.368C162.034 180.435 161.803 179.514 161.346 178.699C160.889 177.884 160.223 177.205 159.416 176.731C158.609 176.257 157.69 176.004 156.753 176C155.815 175.996 154.894 176.239 154.083 176.706L118.976 196.822C118.145 197.283 117.455 197.959 116.977 198.778C116.5 199.597 116.253 200.529 116.262 201.476C116.272 202.423 116.538 203.351 117.032 204.16C117.526 204.969 118.23 205.631 119.07 206.075ZM119.07 323.085L154.176 343.294C154.979 343.756 155.89 343.999 156.817 344C157.744 344 158.655 343.758 159.458 343.298C160.262 342.838 160.93 342.175 161.395 341.377C161.861 340.578 162.107 339.672 162.11 338.749V289.264L119.07 313.948C118.263 314.41 117.592 315.075 117.126 315.877C116.659 316.679 116.414 317.59 116.414 318.517C116.414 319.444 116.659 320.354 117.126 321.156C117.592 321.958 118.263 322.624 119.07 323.085ZM162.017 230.759L212.874 260.012V210.621C212.897 209.688 212.669 208.766 212.215 207.951C211.761 207.135 211.097 206.454 210.291 205.979C209.485 205.504 208.567 205.252 207.63 205.249C206.694 205.245 205.773 205.49 204.963 205.959L162.017 230.759ZM162.017 289.264L204.963 313.948C205.764 314.412 206.674 314.656 207.6 314.658C208.527 314.659 209.437 314.417 210.239 313.956C211.042 313.495 211.708 312.831 212.171 312.032C212.633 311.232 212.876 310.326 212.874 309.403V260.012L162.017 289.264Z" fill="white"></path><defs><linearGradient id="paint0_linear_2124_2977" x1="-158.001" y1="-82" x2="-167.273" y2="425.404" gradientUnits="userSpaceOnUse"><stop stop-color="#FFC36F"></stop><stop offset="1" stop-color="#FF7656"></stop></linearGradient></defs></svg> 