<?xml version="1.0" encoding="UTF-8"?> <svg xmlns="http://www.w3.org/2000/svg" width="30" height="30" viewBox="0 0 30 30" fill="none"><path d="M2.91284 2.625H27.0873V17.1793C27.0873 19.8742 25.5403 22.3298 23.1095 23.4933L15.0001 27.375L6.89058 23.4933C4.45983 22.3298 2.91284 19.8742 2.91284 17.1793V2.625Z" stroke="#000F8F" stroke-width="2"></path><path fill-rule="evenodd" clip-rule="evenodd" d="M14.0481 10.5C13.4958 10.5 13.0481 10.9477 13.0481 11.5V13.7981L10.7501 13.7981C10.1978 13.7981 9.75012 14.2458 9.75012 14.7981V16.7019C9.75012 17.2542 10.1978 17.7019 10.7501 17.7019H13.0481V19.9999C13.0481 20.5522 13.4958 20.9999 14.0481 20.9999H15.9519C16.5042 20.9999 16.9519 20.5522 16.9519 19.9999V17.7019H19.25C19.8023 17.7019 20.25 17.2542 20.25 16.7019V14.7981C20.25 14.2458 19.8023 13.7981 19.25 13.7981L16.9519 13.7981V11.5C16.9519 10.9477 16.5042 10.5 15.9519 10.5H14.0481Z" fill="url(#paint0_linear_1813_3001)"></path><path d="M2.76892 6.76733H27.2311" stroke="#000F8F" stroke-width="2"></path><defs><linearGradient id="paint0_linear_1813_3001" x1="9.75009" y1="12.3846" x2="11.6178" y2="21.0998" gradientUnits="userSpaceOnUse"><stop stop-color="#FFC36F"></stop><stop offset="1" stop-color="#FF7656"></stop></linearGradient></defs></svg> 