<?xml version="1.0" encoding="UTF-8"?> <svg xmlns="http://www.w3.org/2000/svg" width="30" height="31" viewBox="0 0 30 31" fill="none"><circle cx="15" cy="15.5" r="13" stroke="#000F8F" stroke-width="2"></circle><path d="M15 15.5C17.315 15.5 19.1917 13.6233 19.1917 11.3084C19.1917 8.99337 17.315 7.1167 15 7.1167C12.685 7.1167 10.8083 8.99337 10.8083 11.3084C10.8083 13.6233 12.685 15.5 15 15.5Z" fill="url(#paint0_linear_1815_3034)"></path><path d="M23.3833 25.4302V25.4302C23.3833 23.7626 22.7208 22.1634 21.5417 20.9843C20.3626 19.8051 18.7633 19.1427 17.0958 19.1427H12.9041C11.2366 19.1427 9.63733 19.8051 8.4582 20.9843C7.27907 22.1634 6.61664 23.7626 6.61664 25.4302V25.4302" stroke="#000F8F" stroke-width="2" stroke-miterlimit="10"></path><defs><linearGradient id="paint0_linear_1815_3034" x1="9.62501" y1="9.37499" x2="12.9241" y2="16.3927" gradientUnits="userSpaceOnUse"><stop stop-color="#FFC36F"></stop><stop offset="1" stop-color="#FF7656"></stop></linearGradient></defs></svg> 