<?xml version="1.0" encoding="UTF-8"?> <svg xmlns="http://www.w3.org/2000/svg" width="30" height="31" viewBox="0 0 30 31" fill="none"><path d="M4 8.10303C4 6.44617 5.34315 5.10303 7 5.10303H23C24.6569 5.10303 26 6.44617 26 8.10303V21.103H4V8.10303Z" stroke="#000F8F" stroke-width="2"></path><path d="M1.5 24.353C1.5 25.4576 2.39543 26.353 3.5 26.353H26.5C27.6046 26.353 28.5 25.4576 28.5 24.353V21.103H1.5V24.353Z" stroke="#000F8F" stroke-width="2"></path><path fill-rule="evenodd" clip-rule="evenodd" d="M17.0167 8.45393C16.7017 8.13895 16.1631 8.36203 16.1631 8.80749L16.1631 11.311L9.82615 11.311C9.27386 11.311 8.82615 11.7587 8.82615 12.311L8.82615 13.8951C8.82615 14.4474 9.27386 14.8951 9.82615 14.8951L16.1631 14.8951L16.1631 17.3984C16.1631 17.8438 16.7017 18.0669 17.0167 17.7519L19.8735 14.8951H19.8736V14.8951L21.3121 13.4565C21.5074 13.2612 21.5074 12.9446 21.3121 12.7494L17.0167 8.45393Z" fill="url(#paint0_linear_1735_2927)"></path><defs><linearGradient id="paint0_linear_1735_2927" x1="8.95915" y1="13.0211" x2="21.6657" y2="13.1031" gradientUnits="userSpaceOnUse"><stop stop-color="#FFC36F"></stop><stop offset="1" stop-color="#FF7656"></stop></linearGradient></defs></svg> 